<?xml version="1.0" encoding="UTF-8" standalone="no"?>
<svg width="232px" height="196px" viewBox="0 0 232 196" version="1.1" xmlns="http://www.w3.org/2000/svg" xmlns:xlink="http://www.w3.org/1999/xlink" xmlns:sketch="http://www.bohemiancoding.com/sketch/ns">
    <!-- Generator: Sketch 3.2.2 (9983) - http://www.bohemiancoding.com/sketch -->
    <title>Imported Layers</title>
    <desc>Created with Sketch.</desc>
    <defs></defs>
    <g id="About-Us" stroke="none" stroke-width="1" fill="none" fill-rule="evenodd" sketch:type="MSPage">
        <g id="About-Us---Company--2" sketch:type="MSArtboardGroup" transform="translate(-149.000000, -871.000000)">
            <g id="Imported-Layers" sketch:type="MSLayerGroup" transform="translate(151.000000, 873.000000)">
                <path d="M112.229,0.863 L227.868,0.863 L227.868,145.492 L112.229,145.492 L112.229,0.863 Z M169.548,27.333 L169.548,38.667 L169.548,27.333 Z M148.951,38.667 L148.951,47 L148.951,38.667 Z M190.145,38.667 L190.145,47 L190.145,38.667 Z M190.145,59 L190.145,69.614 L190.145,59 Z M172.79,69.614 L172.79,77.947 L172.79,69.614 Z M207.5,69.614 L207.5,77.947 L207.5,69.614 Z M207.5,93.614 L207.5,101.947 L207.5,93.614 Z M172.79,93.614 L172.79,101.947 L172.79,93.614 Z M146.951,38.667 L192.145,38.667 L146.951,38.667 Z M179.693,47 L200.597,47 L200.597,59 L179.693,59 L179.693,47 Z" id="Stroke-1" stroke="#CFD4DD" stroke-width="4" sketch:type="MSShapeGroup"></path>
                <path d="M197.048,79.981 L217.952,79.981 L217.952,91.981 L197.048,91.981 L197.048,79.981 Z" id="Fill-2" fill="#F9F9FA" sketch:type="MSShapeGroup"></path>
                <path d="M197.048,79.981 L217.952,79.981 L217.952,91.981 L197.048,91.981 L197.048,79.981 Z" id="Stroke-3" stroke="#CFD4DD" stroke-width="4" sketch:type="MSShapeGroup"></path>
                <path d="M162.338,79.981 L183.242,79.981 L183.242,91.981 L162.338,91.981 L162.338,79.981 Z M197.048,103.981 L217.952,103.981 L217.952,115.981 L197.048,115.981 L197.048,103.981 Z M162.338,103.981 L183.242,103.981 L183.242,115.981 L162.338,115.981 L162.338,103.981 Z M138.499,47 L159.403,47 L159.403,59 L138.499,59 L138.499,47 Z M170.79,69.614 L209.5,69.614 L170.79,69.614 Z" id="Stroke-4" stroke="#CFD4DD" stroke-width="4" sketch:type="MSShapeGroup"></path>
                <path d="M159.096,15.333 L180,15.333 L180,27.333 L159.096,27.333 L159.096,15.333 Z" id="Fill-5" fill="#ADDDE1" sketch:type="MSShapeGroup"></path>
                <path d="M159.096,15.333 L180,15.333 L180,27.333 L159.096,27.333 L159.096,15.333 Z" id="Stroke-6" stroke="#A9B2BF" stroke-width="4" sketch:type="MSShapeGroup"></path>
                <path d="M154.945,164.651 L0.942,164.651 L0.942,60.317 C0.942,55.49 4.856,51.576 9.683,51.576 L146.205,51.576 C151.032,51.576 154.945,55.49 154.945,60.317 L154.945,164.651 L154.945,164.651 Z" id="Fill-7" fill="#FFFFFF" sketch:type="MSShapeGroup"></path>
                <path d="M154.945,164.651 L0.942,164.651 L0.942,60.317 C0.942,55.49 4.856,51.576 9.683,51.576 L146.205,51.576 C151.032,51.576 154.945,55.49 154.945,60.317 L154.945,164.651 L154.945,164.651 Z" id="Stroke-8" stroke="#CFD4DD" stroke-width="4" sketch:type="MSShapeGroup"></path>
                <path d="M154.945,77.651 L0.942,77.651 L0.942,60.317 C0.942,55.49 4.856,51.576 9.683,51.576 L146.205,51.576 C151.032,51.576 154.945,55.49 154.945,60.317 L154.945,77.651 L154.945,77.651 Z" id="Fill-9" fill="#F9F9FA" sketch:type="MSShapeGroup"></path>
                <path d="M154.945,77.651 L0.942,77.651 L0.942,60.317 C0.942,55.49 4.856,51.576 9.683,51.576 L146.205,51.576 C151.032,51.576 154.945,55.49 154.945,60.317 L154.945,77.651 L154.945,77.651 Z" id="Stroke-10" stroke="#CFD4DD" stroke-width="4" sketch:type="MSShapeGroup"></path>
                <path d="M20.316,64.614 C20.316,66.998 18.384,68.93 16,68.93 C13.616,68.93 11.684,66.998 11.684,64.614 C11.684,62.23 13.616,60.297 16,60.297 C18.384,60.297 20.316,62.23 20.316,64.614 L20.316,64.614 Z" id="Fill-11" fill="#F9F9FA" sketch:type="MSShapeGroup"></path>
                <path d="M20.316,64.614 C20.316,66.998 18.384,68.93 16,68.93 C13.616,68.93 11.684,66.998 11.684,64.614 C11.684,62.23 13.616,60.297 16,60.297 C18.384,60.297 20.316,62.23 20.316,64.614 L20.316,64.614 Z" id="Stroke-12" stroke="#CFD4DD" stroke-width="4" sketch:type="MSShapeGroup"></path>
                <path d="M36.317,64.614 C36.317,66.998 34.384,68.93 32,68.93 C29.616,68.93 27.683,66.998 27.683,64.614 C27.683,62.23 29.616,60.297 32,60.297 C34.384,60.297 36.317,62.23 36.317,64.614 L36.317,64.614 Z" id="Fill-13" fill="#F9F9FA" sketch:type="MSShapeGroup"></path>
                <path d="M36.317,64.614 C36.317,66.998 34.384,68.93 32,68.93 C29.616,68.93 27.683,66.998 27.683,64.614 C27.683,62.23 29.616,60.297 32,60.297 C34.384,60.297 36.317,62.23 36.317,64.614 L36.317,64.614 Z" id="Stroke-14" stroke="#CFD4DD" stroke-width="4" sketch:type="MSShapeGroup"></path>
                <path d="M52.317,64.614 C52.317,66.998 50.384,68.93 48,68.93 C45.616,68.93 43.683,66.998 43.683,64.614 C43.683,62.23 45.616,60.297 48,60.297 C50.384,60.297 52.317,62.23 52.317,64.614 L52.317,64.614 Z" id="Fill-15" fill="#F9F9FA" sketch:type="MSShapeGroup"></path>
                <path d="M52.317,64.614 C52.317,66.998 50.384,68.93 48,68.93 C45.616,68.93 43.683,66.998 43.683,64.614 C43.683,62.23 45.616,60.297 48,60.297 C50.384,60.297 52.317,62.23 52.317,64.614 L52.317,64.614 Z" id="Stroke-16" stroke="#CFD4DD" stroke-width="4" sketch:type="MSShapeGroup"></path>
                <path d="M39,76.5 L39,164.651" id="Stroke-17" stroke="#CFD4DD" stroke-width="4" sketch:type="MSShapeGroup"></path>
                <path d="M9.813,88.333 L30.129,88.333" id="Stroke-18" stroke="#A1D5D9" stroke-width="4" sketch:type="MSShapeGroup"></path>
                <path d="M9.813,96.333 L30.129,96.333 L9.813,96.333 Z M9.813,104.333 L30.129,104.333 L9.813,104.333 Z M9.813,112.333 L30.129,112.333 L9.813,112.333 Z M47.473,144.333 L77.806,144.333 L47.473,144.333 Z M47.473,152.333 L67.806,152.333 L47.473,152.333 Z M116.139,144.333 L146.473,144.333 L116.139,144.333 Z M116.139,152.333 L136.473,152.333 L116.139,152.333 Z M81.806,144.333 L112.139,144.333 L81.806,144.333 Z M81.806,152.333 L92.139,152.333 L81.806,152.333 Z M9.813,120.333 L30.129,120.333 L9.813,120.333 Z M9.813,128.333 L30.129,128.333 L9.813,128.333 Z M49.473,120.333 L75.806,120.333 L75.806,136.333 L49.473,136.333 L49.473,120.333 Z" id="Stroke-19" stroke="#CFD4DD" stroke-width="4" sketch:type="MSShapeGroup"></path>
                <path d="M49.473,87.333 L144.473,87.333 L144.473,111.333 L49.473,111.333 L49.473,87.333 Z" id="Fill-20" fill="#F9F9FA" sketch:type="MSShapeGroup"></path>
                <path d="M49.473,87.333 L144.473,87.333 L144.473,111.333 L49.473,111.333 L49.473,87.333 Z" id="Stroke-21" stroke="#CFD4DD" stroke-width="4" sketch:type="MSShapeGroup"></path>
                <path d="M83.806,120.333 L110.139,120.333 L110.139,136.333 L83.806,136.333 L83.806,120.333 Z" id="Fill-22" fill="#ADDDE1" sketch:type="MSShapeGroup"></path>
                <path d="M83.806,120.333 L110.139,120.333 L110.139,136.333 L83.806,136.333 L83.806,120.333 Z" id="Stroke-23" stroke="#A9B2BF" stroke-width="4" sketch:type="MSShapeGroup"></path>
                <path d="M118.139,120.333 L144.472,120.333 L144.472,136.333 L118.139,136.333 L118.139,120.333 Z M162.338,126.5 L216.5,126.5 L162.338,126.5 Z M162.338,134.5 L193.75,134.5 L162.338,134.5 Z" id="Stroke-24" stroke="#CFD4DD" stroke-width="4" sketch:type="MSShapeGroup"></path>
                <path d="M134.135,179.727 L128.822,179.727" id="Stroke-25" stroke="#ADDDE1" stroke-width="4" stroke-linecap="round" sketch:type="MSShapeGroup"></path>
                <path d="M211.274,180.3 C211.274,183.598 208.6,186.272 205.302,186.272 L148.468,186.272 L148.468,173.181 L205.302,173.181 C208.6,173.181 211.274,175.855 211.274,179.154 L211.274,180.3 L211.274,180.3 Z" id="Stroke-26" stroke="#CFD4DD" stroke-width="4" sketch:type="MSShapeGroup"></path>
                <path d="M187.662,190.848 L202.632,191.63 C203.719,191.687 204.781,191.295 205.57,190.545 C206.359,189.796 206.806,188.756 206.806,187.668 L206.806,186.074" id="Stroke-27" stroke="#A9B2BF" stroke-width="4" sketch:type="MSShapeGroup"></path>
                <path d="M134.135,178.525 L134.135,180.929 L147.468,186.272 L147.468,173.181 L134.135,178.525 L134.135,178.525 Z" id="Fill-28" fill="#F9F9FA" sketch:type="MSShapeGroup"></path>
                <path d="M134.135,178.525 L134.135,180.929 L147.468,186.272 L147.468,173.181 L134.135,178.525 L134.135,178.525 Z" id="Stroke-29" stroke="#CFD4DD" stroke-width="4" stroke-linejoin="round" sketch:type="MSShapeGroup"></path>
                <path d="M211.274,180.3 C211.274,183.598 208.6,186.272 205.302,186.272 L186.468,186.272 L186.468,173.181 L205.302,173.181 C208.6,173.181 211.274,175.855 211.274,179.154 L211.274,180.3 L211.274,180.3 Z" id="Fill-30" fill="#ADDDE1" sketch:type="MSShapeGroup"></path>
                <path d="M211.274,180.3 C211.274,183.598 208.6,186.272 205.302,186.272 L186.468,186.272 L186.468,173.181 L205.302,173.181 C208.6,173.181 211.274,175.855 211.274,179.154 L211.274,180.3 L211.274,180.3 Z" id="Stroke-31" stroke="#A9B2BF" stroke-width="4" sketch:type="MSShapeGroup"></path>
            </g>
        </g>
    </g>
</svg>